# This file uses centimeters as units for non-parametric coordinates.

mtllib pillaar.mtl
g default
v 1.152866 2.372522 -0.987227
v 1.751051 2.372522 -0.987227
v 1.152866 2.584522 -0.987227
v 1.751051 2.584522 -0.987227
v 1.152866 2.584522 -1.585411
v 1.751051 2.584522 -1.585411
v 1.152866 2.372522 -1.585411
v 1.751051 2.372522 -1.585411
v 1.225173 2.625959 -1.059533
v 1.678744 2.625959 -1.059533
v 1.678744 2.625959 -1.513105
v 1.225173 2.625959 -1.513105
v 1.282834 3.153214 -1.117195
v 1.621083 3.153214 -1.117195
v 1.621083 3.153214 -1.455443
v 1.282834 3.153214 -1.455443
v 1.260395 3.185486 -1.094755
v 1.643522 3.185486 -1.094755
v 1.643522 3.185486 -1.477883
v 1.260395 3.185486 -1.477883
v 1.260395 3.281355 -1.094755
v 1.643522 3.281355 -1.094755
v 1.643522 3.281355 -1.477883
v 1.260395 3.281355 -1.477883
v 1.290036 3.319770 -1.124397
v 1.613881 3.319770 -1.124397
v 1.613881 3.319770 -1.448241
v 1.290036 3.319770 -1.448241
v 1.343740 3.319770 -1.178101
v 1.560177 3.319770 -1.178101
v 1.560177 3.319770 -1.394537
v 1.343740 3.319770 -1.394537
v 1.343740 3.680855 -1.178101
v 1.560177 3.680855 -1.178101
v 1.560177 3.680855 -1.394537
v 1.343740 3.680855 -1.394537
v 1.324598 3.806895 -1.158958
v 1.579319 3.806895 -1.158958
v 1.579319 3.806895 -1.413680
v 1.324598 3.806895 -1.413680
v 1.296434 3.862391 -1.130794
v 1.607483 3.862391 -1.130794
v 1.607483 3.862391 -1.441844
v 1.296434 3.862391 -1.441844
v 1.296434 3.978083 -1.130794
v 1.607483 3.978083 -1.130794
v 1.607483 3.978083 -1.441844
v 1.296434 3.978083 -1.441844
v 1.337767 4.079220 -1.172127
v 1.566150 4.079220 -1.172127
v 1.566150 4.079220 -1.400511
v 1.337767 4.079220 -1.400511
v 1.337767 4.557104 -1.172127
v 1.566150 4.557104 -1.172127
v 1.566150 4.557104 -1.400511
v 1.337767 4.557104 -1.400511
v 1.313781 4.623771 -1.148141
v 1.590136 4.623771 -1.148141
v 1.590136 4.623771 -1.424497
v 1.313781 4.623771 -1.424497
v 1.313781 4.766446 -1.148141
v 1.590136 4.766446 -1.148141
v 1.590136 4.766446 -1.424497
v 1.313781 4.766446 -1.424497
vt 0.612209 0.001888
vt 0.750525 0.001888
vt 0.750525 0.140204
vt 0.612209 0.140204
vt 0.733806 0.167238
vt 0.628928 0.167238
vt 0.720473 0.511237
vt 0.642261 0.511237
vt 0.725662 0.532293
vt 0.637072 0.532293
vt 0.725662 0.594841
vt 0.637072 0.594841
vt 0.718808 0.619904
vt 0.643926 0.619904
vt 0.758380 0.001888
vt 0.896697 0.001888
vt 0.896697 0.140204
vt 0.758380 0.140204
vt 0.879977 0.167238
vt 0.775100 0.167238
vt 0.866645 0.511237
vt 0.788433 0.511237
vt 0.871833 0.532293
vt 0.783244 0.532293
vt 0.871833 0.594841
vt 0.783244 0.594841
vt 0.864979 0.619904
vt 0.790098 0.619904
vt 0.091084 0.001888
vt 0.141130 0.001888
vt 0.141130 0.237472
vt 0.091084 0.237472
vt 0.145556 0.319705
vt 0.086657 0.319705
vt 0.152068 0.355912
vt 0.080145 0.355912
vt 0.152068 0.431394
vt 0.080145 0.431394
vt 0.142511 0.497379
vt 0.089702 0.497379
vt 0.142511 0.809167
vt 0.089702 0.809167
vt 0.148057 0.852662
vt 0.084156 0.852662
vt 0.148057 0.945748
vt 0.084156 0.945748
vt 0.250898 0.001888
vt 0.300944 0.001888
vt 0.300944 0.237472
vt 0.250898 0.237472
vt 0.305370 0.319705
vt 0.246471 0.319705
vt 0.311882 0.355912
vt 0.239959 0.355912
vt 0.311882 0.431394
vt 0.239959 0.431394
vt 0.302325 0.497379
vt 0.249517 0.497379
vt 0.302325 0.809167
vt 0.249517 0.809167
vt 0.307871 0.852662
vt 0.243970 0.852662
vt 0.307871 0.945748
vt 0.243970 0.945748
vt 0.708640 0.623896
vt 0.772540 0.623896
vt 0.772540 0.687797
vt 0.708640 0.687797
vt 0.859692 0.762212
vt 0.859692 0.623896
vt 0.998008 0.623896
vt 0.998008 0.762212
vt 0.778675 0.698777
vt 0.778675 0.623896
vt 0.791093 0.636314
vt 0.791093 0.686360
vt 0.853557 0.623896
vt 0.841139 0.636314
vt 0.853557 0.698777
vt 0.841139 0.686360
vt 0.319866 0.001888
vt 0.458182 0.001888
vt 0.458182 0.140204
vt 0.319866 0.140204
vt 0.441463 0.167238
vt 0.336585 0.167238
vt 0.428130 0.511237
vt 0.349918 0.511237
vt 0.433319 0.532293
vt 0.344730 0.532293
vt 0.433319 0.594841
vt 0.344730 0.594841
vt 0.426465 0.619904
vt 0.351584 0.619904
vt 0.466038 0.481588
vt 0.604354 0.481588
vt 0.604354 0.619904
vt 0.466038 0.619904
vt 0.482757 0.454554
vt 0.587634 0.454554
vt 0.496090 0.110555
vt 0.574302 0.110555
vt 0.490901 0.089499
vt 0.579490 0.089499
vt 0.490901 0.026951
vt 0.579490 0.026951
vt 0.497755 0.001888
vt 0.572636 0.001888
vt 0.012931 0.001888
vt 0.062976 0.001888
vt 0.062976 0.237472
vt 0.012931 0.237472
vt 0.067403 0.319705
vt 0.008504 0.319705
vt 0.073915 0.355912
vt 0.001992 0.355912
vt 0.073915 0.431394
vt 0.001992 0.431394
vt 0.064358 0.497379
vt 0.011549 0.497379
vt 0.064358 0.809167
vt 0.011549 0.809167
vt 0.069904 0.852662
vt 0.006003 0.852662
vt 0.069904 0.945748
vt 0.006003 0.945748
vt 0.221037 0.945748
vt 0.170991 0.945748
vt 0.170991 0.710164
vt 0.221037 0.710164
vt 0.166564 0.627931
vt 0.225463 0.627931
vt 0.160052 0.591724
vt 0.231975 0.591724
vt 0.160052 0.516242
vt 0.231975 0.516242
vt 0.169610 0.450257
vt 0.222418 0.450257
vt 0.169610 0.138469
vt 0.222418 0.138469
vt 0.164063 0.094974
vt 0.227964 0.094974
vt 0.164063 0.001888
vt 0.227964 0.001888
vn 0.000000 0.000000 1.000000
vn 0.000000 0.000000 1.000000
vn 0.000000 0.000000 1.000000
vn 0.000000 0.000000 1.000000
vn 0.000000 1.000000 0.000000
vn 0.000000 1.000000 0.000000
vn 0.000000 1.000000 0.000000
vn 0.000000 1.000000 0.000000
vn 0.000000 0.000000 -1.000000
vn 0.000000 0.000000 -1.000000
vn 0.000000 0.000000 -1.000000
vn 0.000000 0.000000 -1.000000
vn 0.000000 -1.000000 0.000000
vn 0.000000 -1.000000 0.000000
vn 0.000000 -1.000000 0.000000
vn 0.000000 -1.000000 0.000000
vn 1.000000 0.000000 0.000000
vn 1.000000 0.000000 0.000000
vn 1.000000 0.000000 0.000000
vn 1.000000 0.000000 0.000000
vn -1.000000 0.000000 0.000000
vn -1.000000 0.000000 0.000000
vn -1.000000 0.000000 0.000000
vn -1.000000 0.000000 0.000000
vn 0.000000 0.867630 0.497210
vn 0.000000 0.867630 0.497210
vn 0.000000 0.867630 0.497210
vn 0.000000 0.867630 0.497210
vn 0.497210 0.867630 0.000000
vn 0.497210 0.867630 0.000000
vn 0.497210 0.867630 0.000000
vn 0.497210 0.867630 0.000000
vn 0.000000 0.867630 -0.497210
vn 0.000000 0.867630 -0.497210
vn 0.000000 0.867630 -0.497210
vn 0.000000 0.867630 -0.497210
vn -0.497210 0.867630 0.000000
vn -0.497210 0.867630 0.000000
vn -0.497210 0.867630 0.000000
vn -0.497210 0.867630 0.000000
vn 0.000000 0.108714 0.994073
vn 0.000000 0.108714 0.994073
vn 0.000000 0.108714 0.994073
vn 0.000000 0.108714 0.994073
vn 0.994073 0.108714 0.000000
vn 0.994073 0.108714 0.000000
vn 0.994073 0.108714 0.000000
vn 0.994073 0.108714 0.000000
vn 0.000000 0.108714 -0.994073
vn 0.000000 0.108714 -0.994073
vn 0.000000 0.108714 -0.994073
vn 0.000000 0.108714 -0.994073
vn -0.994073 0.108714 0.000000
vn -0.994073 0.108714 0.000000
vn -0.994073 0.108714 0.000000
vn -0.994073 0.108714 0.000000
vn 0.000000 -0.570876 0.821036
vn 0.000000 -0.570876 0.821036
vn 0.000000 -0.570876 0.821036
vn 0.000000 -0.570876 0.821036
vn 0.821037 -0.570875 0.000000
vn 0.821037 -0.570875 0.000000
vn 0.821037 -0.570875 0.000000
vn 0.821037 -0.570875 0.000000
vn 0.000000 -0.570876 -0.821036
vn 0.000000 -0.570876 -0.821036
vn 0.000000 -0.570876 -0.821036
vn 0.000000 -0.570876 -0.821036
vn -0.821037 -0.570875 0.000000
vn -0.821037 -0.570875 0.000000
vn -0.821037 -0.570875 0.000000
vn -0.821037 -0.570875 0.000000
vn 0.000000 0.000000 1.000000
vn 0.000000 0.000000 1.000000
vn 0.000000 0.000000 1.000000
vn 0.000000 0.000000 1.000000
vn 1.000000 0.000000 0.000000
vn 1.000000 0.000000 0.000000
vn 1.000000 0.000000 0.000000
vn 1.000000 0.000000 0.000000
vn 0.000000 0.000000 -1.000000
vn 0.000000 0.000000 -1.000000
vn 0.000000 0.000000 -1.000000
vn 0.000000 0.000000 -1.000000
vn -1.000000 0.000000 0.000000
vn -1.000000 0.000000 0.000000
vn -1.000000 0.000000 0.000000
vn -1.000000 0.000000 0.000000
vn 0.000000 0.610897 0.791710
vn 0.000000 0.610897 0.791710
vn 0.000000 0.610898 0.791710
vn 0.000000 0.610898 0.791710
vn 0.791711 0.610896 0.000000
vn 0.791711 0.610896 0.000000
vn 0.791711 0.610896 0.000000
vn 0.791711 0.610896 0.000000
vn 0.000000 0.610897 -0.791710
vn 0.000000 0.610897 -0.791710
vn 0.000000 0.610898 -0.791710
vn 0.000000 0.610898 -0.791710
vn -0.791711 0.610896 0.000000
vn -0.791711 0.610896 0.000000
vn -0.791711 0.610896 0.000000
vn -0.791711 0.610896 0.000000
vn 0.000000 1.000000 0.000000
vn 0.000000 1.000000 0.000000
vn 0.000000 1.000000 0.000000
vn 0.000000 1.000000 0.000000
vn 0.000000 1.000000 0.000000
vn 0.000000 1.000000 0.000000
vn 0.000000 1.000000 0.000000
vn 0.000000 1.000000 0.000000
vn 0.000000 1.000000 0.000000
vn 0.000000 1.000000 0.000000
vn 0.000000 1.000000 0.000000
vn 0.000000 1.000000 0.000000
vn 0.000000 1.000000 0.000000
vn 0.000000 1.000000 0.000000
vn 0.000000 1.000000 0.000000
vn 0.000000 1.000000 0.000000
vn 0.000000 0.000000 1.000000
vn 0.000000 0.000000 1.000000
vn 0.000000 0.000000 1.000000
vn 0.000000 0.000000 1.000000
vn 1.000000 0.000000 0.000000
vn 1.000000 0.000000 0.000000
vn 1.000000 0.000000 0.000000
vn 1.000000 0.000000 0.000000
vn 0.000000 0.000000 -1.000000
vn 0.000000 0.000000 -1.000000
vn 0.000000 0.000000 -1.000000
vn 0.000000 0.000000 -1.000000
vn -1.000000 0.000000 0.000000
vn -1.000000 0.000000 0.000000
vn -1.000000 0.000000 0.000000
vn -1.000000 0.000000 0.000000
vn 0.000000 -0.150155 0.988662
vn 0.000000 -0.150155 0.988662
vn 0.000000 -0.150155 0.988662
vn 0.000000 -0.150155 0.988662
vn 0.988663 -0.150154 0.000000
vn 0.988663 -0.150154 0.000000
vn 0.988663 -0.150154 0.000000
vn 0.988663 -0.150154 0.000000
vn 0.000000 -0.150155 -0.988662
vn 0.000000 -0.150155 -0.988662
vn 0.000000 -0.150155 -0.988662
vn 0.000000 -0.150155 -0.988662
vn -0.988663 -0.150154 0.000000
vn -0.988663 -0.150154 0.000000
vn -0.988663 -0.150154 0.000000
vn -0.988663 -0.150154 0.000000
vn 0.000000 -0.452553 0.891738
vn 0.000000 -0.452553 0.891738
vn 0.000000 -0.452553 0.891738
vn 0.000000 -0.452553 0.891738
vn 0.891739 -0.452551 0.000000
vn 0.891739 -0.452551 0.000000
vn 0.891739 -0.452551 0.000000
vn 0.891739 -0.452551 0.000000
vn 0.000000 -0.452553 -0.891738
vn 0.000000 -0.452553 -0.891738
vn 0.000000 -0.452553 -0.891738
vn 0.000000 -0.452553 -0.891738
vn -0.891739 -0.452551 0.000000
vn -0.891739 -0.452551 0.000000
vn -0.891739 -0.452551 0.000000
vn -0.891739 -0.452551 0.000000
vn 0.000000 0.000000 1.000000
vn 0.000000 0.000000 1.000000
vn 0.000000 0.000000 1.000000
vn 0.000000 0.000000 1.000000
vn 1.000000 0.000000 0.000000
vn 1.000000 0.000000 0.000000
vn 1.000000 0.000000 0.000000
vn 1.000000 0.000000 0.000000
vn 0.000000 0.000000 -1.000000
vn 0.000000 0.000000 -1.000000
vn 0.000000 0.000000 -1.000000
vn 0.000000 0.000000 -1.000000
vn -1.000000 0.000000 0.000000
vn -1.000000 0.000000 0.000000
vn -1.000000 0.000000 0.000000
vn -1.000000 0.000000 0.000000
vn 0.000000 0.378313 0.925678
vn 0.000000 0.378313 0.925678
vn 0.000000 0.378313 0.925678
vn 0.000000 0.378313 0.925678
vn 0.925677 0.378314 0.000000
vn 0.925677 0.378314 0.000000
vn 0.925678 0.378314 0.000000
vn 0.925678 0.378314 0.000000
vn 0.000000 0.378313 -0.925678
vn 0.000000 0.378313 -0.925678
vn 0.000000 0.378313 -0.925678
vn 0.000000 0.378313 -0.925678
vn -0.925677 0.378314 0.000000
vn -0.925677 0.378314 0.000000
vn -0.925678 0.378314 0.000000
vn -0.925678 0.378314 0.000000
vn 0.000000 0.000000 1.000000
vn 0.000000 0.000000 1.000000
vn 0.000000 0.000000 1.000000
vn 0.000000 0.000000 1.000000
vn 1.000000 0.000000 0.000000
vn 1.000000 0.000000 0.000000
vn 1.000000 0.000000 0.000000
vn 1.000000 0.000000 0.000000
vn 0.000000 0.000000 -1.000000
vn 0.000000 0.000000 -1.000000
vn 0.000000 0.000000 -1.000000
vn 0.000000 0.000000 -1.000000
vn -1.000000 0.000000 0.000000
vn -1.000000 0.000000 0.000000
vn -1.000000 0.000000 0.000000
vn -1.000000 0.000000 0.000000
vn 0.000000 -0.338550 0.940948
vn 0.000000 -0.338550 0.940948
vn 0.000000 -0.338550 0.940948
vn 0.000000 -0.338550 0.940948
vn 0.940948 -0.338549 0.000000
vn 0.940948 -0.338549 0.000000
vn 0.940949 -0.338549 0.000000
vn 0.940949 -0.338549 0.000000
vn 0.000000 -0.338550 -0.940948
vn 0.000000 -0.338550 -0.940948
vn 0.000000 -0.338550 -0.940948
vn 0.000000 -0.338550 -0.940948
vn -0.940948 -0.338549 0.000000
vn -0.940948 -0.338549 0.000000
vn -0.940949 -0.338549 0.000000
vn -0.940949 -0.338549 0.000000
vn 0.000000 0.000000 1.000000
vn 0.000000 0.000000 1.000000
vn 0.000000 0.000000 1.000000
vn 0.000000 0.000000 1.000000
vn 1.000000 0.000000 0.000000
vn 1.000000 0.000000 0.000000
vn 1.000000 0.000000 0.000000
vn 1.000000 0.000000 0.000000
vn 0.000000 0.000000 -1.000000
vn 0.000000 0.000000 -1.000000
vn 0.000000 0.000000 -1.000000
vn 0.000000 0.000000 -1.000000
vn -1.000000 0.000000 0.000000
vn -1.000000 0.000000 0.000000
vn -1.000000 0.000000 0.000000
vn -1.000000 0.000000 0.000000
s off
g pilaar1
usemtl initialShadingGroup
f 1/81/1 2/82/2 4/83/3 3/84/4
f 61/65/5 62/66/6 63/67/7 64/68/8
f 5/95/9 6/96/10 8/97/11 7/98/12
f 7/69/13 8/70/14 2/71/15 1/72/16
f 2/1/17 8/2/18 6/3/19 4/4/20
f 7/15/21 1/16/22 3/17/23 5/18/24
f 3/84/25 4/83/26 10/85/27 9/86/28
f 4/4/29 6/3/30 11/5/31 10/6/32
f 6/96/33 5/95/34 12/99/35 11/100/36
f 5/18/37 3/17/38 9/19/39 12/20/40
f 9/86/41 10/85/42 14/87/43 13/88/44
f 10/6/45 11/5/46 15/7/47 14/8/48
f 11/100/49 12/99/50 16/101/51 15/102/52
f 12/20/53 9/19/54 13/21/55 16/22/56
f 13/88/57 14/87/58 18/89/59 17/90/60
f 14/8/61 15/7/62 19/9/63 18/10/64
f 15/102/65 16/101/66 20/103/67 19/104/68
f 16/22/69 13/21/70 17/23/71 20/24/72
f 17/90/73 18/89/74 22/91/75 21/92/76
f 18/10/77 19/9/78 23/11/79 22/12/80
f 19/104/81 20/103/82 24/105/83 23/106/84
f 20/24/85 17/23/86 21/25/87 24/26/88
f 21/92/89 22/91/90 26/93/91 25/94/92
f 22/12/93 23/11/94 27/13/95 26/14/96
f 23/106/97 24/105/98 28/107/99 27/108/100
f 24/26/101 21/25/102 25/27/103 28/28/104
f 25/73/105 26/74/106 30/75/107 29/76/108
f 26/74/109 27/77/110 31/78/111 30/75/112
f 27/77/113 28/79/114 32/80/115 31/78/116
f 28/79/117 25/73/118 29/76/119 32/80/120
f 29/109/121 30/110/122 34/111/123 33/112/124
f 30/29/125 31/30/126 35/31/127 34/32/128
f 31/127/129 32/128/130 36/129/131 35/130/132
f 32/47/133 29/48/134 33/49/135 36/50/136
f 33/112/137 34/111/138 38/113/139 37/114/140
f 34/32/141 35/31/142 39/33/143 38/34/144
f 35/130/145 36/129/146 40/131/147 39/132/148
f 36/50/149 33/49/150 37/51/151 40/52/152
f 37/114/153 38/113/154 42/115/155 41/116/156
f 38/34/157 39/33/158 43/35/159 42/36/160
f 39/132/161 40/131/162 44/133/163 43/134/164
f 40/52/165 37/51/166 41/53/167 44/54/168
f 41/116/169 42/115/170 46/117/171 45/118/172
f 42/36/173 43/35/174 47/37/175 46/38/176
f 43/134/177 44/133/178 48/135/179 47/136/180
f 44/54/181 41/53/182 45/55/183 48/56/184
f 45/118/185 46/117/186 50/119/187 49/120/188
f 46/38/189 47/37/190 51/39/191 50/40/192
f 47/136/193 48/135/194 52/137/195 51/138/196
f 48/56/197 45/55/198 49/57/199 52/58/200
f 49/120/201 50/119/202 54/121/203 53/122/204
f 50/40/205 51/39/206 55/41/207 54/42/208
f 51/138/209 52/137/210 56/139/211 55/140/212
f 52/58/213 49/57/214 53/59/215 56/60/216
f 53/122/217 54/121/218 58/123/219 57/124/220
f 54/42/221 55/41/222 59/43/223 58/44/224
f 55/140/225 56/139/226 60/141/227 59/142/228
f 56/60/229 53/59/230 57/61/231 60/62/232
f 57/124/233 58/123/234 62/125/235 61/126/236
f 58/44/237 59/43/238 63/45/239 62/46/240
f 59/142/241 60/141/242 64/143/243 63/144/244
f 60/62/245 57/61/246 61/63/247 64/64/248
